# xmcd CD database file
#
# Track frame offsets:
#	150
#	16245
#	29315
#	46455
#	62232
#	81872
#	97360
#	112485
#	131930
#	145157
#	161742
#
# Disc length: 2336 seconds
#
# Revision: 3
# Processed by: cddbd v1.5.2PL0 Copyright (c) Steve Scherf et al.
# Submitted via: CDex 1.51
#
DISCID=a6091e0b
DTITLE=The Mavericks - Music for All Occasions
DYEAR=1995
DGENRE=
TTITLE0=Foolish Heart
TTITLE1=One Step Away
TTITLE2=Here Comes The Rain
TTITLE3=Missing You
TTITLE4=All You Ever Do Is Bring Me Down
TTITLE5=My Secret Flame
TTITLE6=The Writing On The Wall
TTITLE7=Loving You
TTITLE8=If You Only Knew
TTITLE9=I'm Not Gonna Cry For You
TTITLE10=Something Stupid
EXTD=YEAR: 1995
EXTT0=
EXTT1=
EXTT2=
EXTT3=
EXTT4=
EXTT5=
EXTT6=
EXTT7=
EXTT8=
EXTT9=
EXTT10=
PLAYORDER=
